<svg height="512pt" viewBox="0 0 512 511" width="512pt" xmlns="http://www.w3.org/2000/svg"><path d="m435.921875 142.113281c-3.707031-21.507812-14.140625-41.257812-30.121094-56.625-19.277343-18.535156-44.628906-28.742187-71.378906-28.742187-11.820313 0-23.589844 2.058594-34.679687 6.011718-23.324219-38.238281-65.347657-62.257812-110.746094-62.257812-71.46875 0-129.609375 58.144531-129.609375 129.613281 0 5.328125.324219 10.652344.976562 15.933594-35.730469 12.410156-60.363281 46.136719-60.363281 85.148437 0 49.734376 40.464844 90.199219 90.199219 90.199219h99.113281v30.046875h-73.011719l139.699219 161 139.699219-161h-73.011719v-30.046875h99.113281c49.734375 0 90.199219-40.464843 90.199219-90.199219 0-44.800781-33.066406-82.257812-76.078125-89.082031zm-105.972656 239.328125-73.949219 85.222656-73.949219-85.222656h37.261719v-160.957031h73.375v160.957031zm91.851562-90.046875h-99.113281v-100.910156h-133.375v100.910156h-99.113281c-33.191407 0-60.199219-27.007812-60.199219-60.199219 0-29.476562 21.0625-54.429687 50.082031-59.335937l15.851563-2.679687-3.769532-15.628907c-1.84375-7.648437-2.777343-15.53125-2.777343-23.4375 0-54.929687 44.683593-99.613281 99.609375-99.613281 38.699218 0 74.207031 22.710938 90.464844 57.855469l6.660156 14.410156 14.011718-7.46875c10.636719-5.675781 22.175782-8.550781 34.289063-8.550781 39.253906 0 71.289063 30.699218 72.9375 69.890625l.601563 14.269531 14.277343.101562c32.953125.234376 59.761719 27.234376 59.761719 60.1875 0 33.191407-27.007812 60.199219-60.199219 60.199219zm0 0"/></svg>