<?xml version="1.0" encoding="iso-8859-1"?>
<!-- Generator: Adobe Illustrator 19.0.0, SVG Export Plug-In . SVG Version: 6.00 Build 0)  -->
<svg version="1.1" id="Layer_1" xmlns="http://www.w3.org/2000/svg" xmlns:xlink="http://www.w3.org/1999/xlink" x="0px" y="0px"
	 viewBox="0 0 512.033 512.033" style="enable-background:new 0 0 512.033 512.033;" xml:space="preserve">
<g transform="translate(-1)">
	<g>
		<path d="M491.683,181.34H470.35v-64c0-11.782-9.551-21.333-21.333-21.333H265.853l-57.752-57.752
			c-4.001-4.001-9.427-6.248-15.085-6.248H22.35c-11.782,0-21.333,9.551-21.333,21.333v404.74c-0.028,0.943,0.001,1.878,0.097,2.8
			c0,0.004,0.001,0.008,0.001,0.012c0.045,0.426,0.102,0.849,0.172,1.269c1.206,8.272,6.649,13.9,13.286,16.394
			c0.103,0.04,0.208,0.078,0.312,0.117c0.26,0.093,0.517,0.189,0.78,0.273c1.035,0.339,2.109,0.598,3.215,0.777
			c0.043,0.007,0.086,0.013,0.13,0.02c0.451,0.07,0.908,0.126,1.37,0.168c0.179,0.017,0.357,0.036,0.536,0.049
			c0.129,0.008,0.26,0.011,0.389,0.017c0.586,0.033,1.172,0.044,1.758,0.032H406.35c9.182,0,17.335-5.876,20.239-14.587l85.333-256
			C516.526,195.605,506.244,181.34,491.683,181.34z M43.683,74.673H184.18l57.752,57.752c4.001,4.001,9.427,6.248,15.085,6.248
			h170.667v42.667h-320c-9.183,0-17.335,5.876-20.239,14.587L43.683,327.211V74.673z M390.974,437.34H51.948l71.111-213.333h325.957
			h13.068L390.974,437.34z"/>
	</g>
</g>
<g>
</g>
<g>
</g>
<g>
</g>
<g>
</g>
<g>
</g>
<g>
</g>
<g>
</g>
<g>
</g>
<g>
</g>
<g>
</g>
<g>
</g>
<g>
</g>
<g>
</g>
<g>
</g>
<g>
</g>
</svg>
